<svg version="1.1" id="Layer_1" xmlns="http://www.w3.org/2000/svg" xmlns:xlink="http://www.w3.org/1999/xlink" x="0px" y="0px"
	 width="100%" viewBox="0 0 512 512" enable-background="new 0 0 512 512" xml:space="preserve">
<path fill="#AA8080" opacity="1.000000" stroke="none" 
	d="
M513.000000,225.000000 
	C513.000000,246.020889 513.000000,267.041779 512.594788,288.359924 
	C511.800842,289.330994 511.209412,289.961151 511.053284,290.685181 
	C508.036194,304.676819 505.611603,318.822479 501.961060,332.644867 
	C497.024017,351.338318 489.085571,368.925842 479.068878,385.450684 
	C473.521454,394.602417 467.077454,403.210632 460.945984,411.597626 
	C460.833923,338.843018 460.829041,266.554596 460.784515,194.266159 
	C460.768860,168.810211 443.940613,152.012390 418.522827,152.002151 
	C383.044647,151.987854 347.566437,151.998520 312.088257,151.998505 
	C310.172455,151.998505 308.256683,151.998505 306.047577,151.998505 
	C306.047577,149.383545 306.047607,147.568649 306.047577,145.753738 
	C306.047424,120.435966 305.533966,95.104767 306.196198,69.804329 
	C306.817871,46.052143 287.743408,27.308651 264.131866,27.744900 
	C225.668640,28.455549 187.182693,27.947575 148.706390,27.903450 
	C146.778793,27.901239 144.851761,27.421576 143.253693,27.003746 
	C149.673050,24.087315 155.655167,21.054840 161.873260,18.626606 
	C181.500610,10.961917 201.635025,5.169771 222.681915,2.920328 
	C223.513519,2.831447 224.229919,1.664590 225.000000,1.000004 
	C246.020889,1.000000 267.041779,1.000000 288.364563,1.409716 
	C293.104553,2.553993 297.574249,3.135911 301.975616,4.047926 
	C330.171173,9.890419 357.305969,18.663525 382.428833,33.075169 
	C401.822845,44.200474 419.864838,57.093544 435.559387,73.096306 
	C440.999298,78.643028 446.275177,84.353424 451.542328,90.066193 
	C465.021454,104.685730 475.841339,121.218269 484.865356,138.806717 
	C498.484955,165.352295 507.922302,193.327316 511.088898,223.195679 
	C511.159058,223.857224 512.338196,224.401184 513.000000,225.000000 
z"/>
<path fill="#AA8080" opacity="1.000000" stroke="none" 
	d="
M1.000002,289.000000 
	C1.000000,267.645782 1.000000,246.291550 1.404846,224.640060 
	C2.198664,223.668808 2.787181,223.038864 2.947058,222.314316 
	C5.961878,208.651123 8.414782,194.840057 12.024584,181.337814 
	C17.011713,162.683762 24.821238,145.076508 34.894138,128.597794 
	C40.486305,119.449303 46.866917,110.782761 52.940697,102.371361 
	C53.004116,175.784332 52.997047,248.724960 53.048351,321.665558 
	C53.062275,341.455811 66.620758,358.642792 86.088295,361.471008 
	C96.845123,363.033752 108.010521,361.784210 119.458023,361.856262 
	C123.571266,361.940552 127.218185,361.989471 130.865204,361.998413 
	C156.560211,362.061279 182.255234,362.115967 207.935013,362.628235 
	C207.935471,391.357330 207.828812,419.632233 208.011307,447.905304 
	C208.126358,465.732452 220.144836,481.622803 237.773422,484.736603 
	C249.227631,486.759857 261.239380,485.626465 273.466736,485.966309 
	C304.389679,486.038055 334.847198,486.037659 365.304626,486.094818 
	C367.240021,486.098450 369.174530,486.549469 370.781555,486.961731 
	C345.408936,499.532532 319.121643,507.805206 291.307587,511.077942 
	C290.474548,511.175934 289.766388,512.335449 289.000000,513.000000 
	C267.979095,513.000000 246.958206,513.000000 225.633453,512.590210 
	C224.487961,511.789612 223.681183,511.185760 222.799240,511.041504 
	C215.706955,509.881561 208.500015,509.243439 201.516113,507.631378 
	C174.360748,501.363495 148.660049,491.402740 124.707031,476.980682 
	C97.439018,460.562653 74.116684,439.605957 54.493748,414.763550 
	C41.342716,398.114502 30.321596,379.947083 22.009935,360.251190 
	C12.654810,338.082672 5.543128,315.338837 2.920697,291.317749 
	C2.829806,290.485199 1.664523,289.769928 1.000002,289.000000 
z"/>
<path fill="#000000" opacity="1.000000" stroke="none" 
	d="
M513.000000,224.531342 
	C512.338196,224.401184 511.159058,223.857224 511.088898,223.195679 
	C507.922302,193.327316 498.484955,165.352295 484.865356,138.806717 
	C475.841339,121.218269 465.021454,104.685730 451.542328,90.066193 
	C446.275177,84.353424 440.999298,78.643028 435.559387,73.096306 
	C419.864838,57.093544 401.822845,44.200474 382.428833,33.075169 
	C357.305969,18.663525 330.171173,9.890419 301.975616,4.047926 
	C297.574249,3.135911 293.104553,2.553993 288.833221,1.409716 
	C363.593719,1.000000 438.187408,1.000000 513.000000,1.000000 
	C513.000000,75.354088 513.000000,149.708389 513.000000,224.531342 
z"/>
<path fill="#000000" opacity="1.000000" stroke="none" 
	d="
M289.468658,513.000000 
	C289.766388,512.335449 290.474548,511.175934 291.307587,511.077942 
	C319.121643,507.805206 345.408936,499.532532 371.113312,486.855621 
	C378.621918,482.781708 385.612885,479.216248 392.293457,475.141876 
	C413.654358,462.114197 432.142426,445.598022 449.069855,427.310547 
	C453.444214,422.584747 457.068634,417.164856 461.037537,412.063812 
	C467.077454,403.210632 473.521454,394.602417 479.068878,385.450684 
	C489.085571,368.925842 497.024017,351.338318 501.961060,332.644867 
	C505.611603,318.822479 508.036194,304.676819 511.053284,290.685181 
	C511.209412,289.961151 511.800842,289.330994 512.594788,288.828552 
	C513.000000,363.593719 513.000000,438.187408 513.000000,513.000000 
	C438.645905,513.000000 364.291626,513.000000 289.468658,513.000000 
z"/>
<path fill="#000000" opacity="1.000000" stroke="none" 
	d="
M1.000002,289.468658 
	C1.664523,289.769928 2.829806,290.485199 2.920697,291.317749 
	C5.543128,315.338837 12.654810,338.082672 22.009935,360.251190 
	C30.321596,379.947083 41.342716,398.114502 54.493748,414.763550 
	C74.116684,439.605957 97.439018,460.562653 124.707031,476.980682 
	C148.660049,491.402740 174.360748,501.363495 201.516113,507.631378 
	C208.500015,509.243439 215.706955,509.881561 222.799240,511.041504 
	C223.681183,511.185760 224.487961,511.789612 225.164795,512.590210 
	C150.406296,513.000000 75.812599,513.000000 1.000000,513.000000 
	C1.000000,438.645905 1.000000,364.291626 1.000002,289.468658 
z"/>
<path fill="#000000" opacity="1.000000" stroke="none" 
	d="
M52.892166,101.899002 
	C46.866917,110.782761 40.486305,119.449303 34.894138,128.597794 
	C24.821238,145.076508 17.011713,162.683762 12.024584,181.337814 
	C8.414782,194.840057 5.961878,208.651123 2.947058,222.314316 
	C2.787181,223.038864 2.198664,223.668808 1.404846,224.171402 
	C1.000000,149.739456 1.000000,75.478920 1.000000,1.000000 
	C75.354088,1.000000 149.708389,1.000000 224.531342,1.000004 
	C224.229919,1.664590 223.513519,2.831447 222.681915,2.920328 
	C201.635025,5.169771 181.500610,10.961917 161.873260,18.626606 
	C155.655167,21.054840 149.673050,24.087315 142.793060,26.941669 
	C133.637192,27.081078 125.271194,27.122089 116.531250,27.076954 
	C108.094849,27.047947 100.032402,27.105087 91.739792,27.102146 
	C91.509621,27.042063 91.050468,27.166668 90.642212,27.200642 
	C89.823029,27.475136 89.416992,27.917112 89.000450,27.927256 
	C68.896904,28.416861 52.412933,47.448776 52.928249,67.433578 
	C53.224274,78.914108 52.924004,90.410019 52.892166,101.899002 
z"/>
<path fill="#F9F5F8" opacity="1.000000" stroke="none" 
	d="
M116.905197,27.163103 
	C125.271194,27.122089 133.637192,27.081078 142.463821,27.102144 
	C144.851761,27.421576 146.778793,27.901239 148.706390,27.903450 
	C187.182693,27.947575 225.668640,28.455549 264.131866,27.744900 
	C287.743408,27.308651 306.817871,46.052143 306.196198,69.804329 
	C305.533966,95.104767 306.047424,120.435966 306.047577,145.753738 
	C306.047607,147.568649 306.047577,149.383545 306.047577,151.998505 
	C308.256683,151.998505 310.172455,151.998505 312.088257,151.998505 
	C347.566437,151.998520 383.044647,151.987854 418.522827,152.002151 
	C443.940613,152.012390 460.768860,168.810211 460.784515,194.266159 
	C460.829041,266.554596 460.833923,338.843018 460.945984,411.597626 
	C457.068634,417.164856 453.444214,422.584747 449.069855,427.310547 
	C432.142426,445.598022 413.654358,462.114197 392.293457,475.141876 
	C385.612885,479.216248 378.621918,482.781708 371.441223,486.686249 
	C369.174530,486.549469 367.240021,486.098450 365.304626,486.094818 
	C334.847198,486.037659 304.389679,486.038055 273.224670,485.712891 
	C271.104187,484.913971 269.684845,484.445068 268.279236,483.938080 
	C253.038437,478.440521 242.012756,464.168274 242.008774,449.699341 
	C241.984787,362.534515 241.990570,275.369659 242.035248,188.204849 
	C242.036331,186.082443 242.367203,183.893112 242.946045,181.848755 
	C247.447342,165.950760 257.968170,156.280945 273.873962,151.967499 
	C271.221436,151.967499 268.568878,151.967499 265.933655,151.575897 
	C260.447479,126.126778 241.715332,111.017410 216.082169,110.969894 
	C209.139572,110.957024 202.196945,110.967941 195.356979,110.967941 
	C193.228653,94.776108 189.364441,89.021057 180.176010,89.179039 
	C176.914978,89.235100 173.292404,90.595680 170.522736,92.410500 
	C164.052643,96.650017 164.826172,103.835724 164.735474,110.973984 
	C156.721863,110.973984 149.109711,110.921066 141.498520,110.983871 
	C118.214912,111.175995 97.978462,126.751190 94.193665,149.700043 
	C91.996918,163.019806 92.769562,176.906631 92.978867,190.526413 
	C93.244263,207.795502 101.392578,221.013046 115.797211,230.342941 
	C124.127419,235.738419 133.417068,237.977737 143.300201,237.938416 
	C150.380493,237.910248 157.460968,237.932938 164.855438,237.932938 
	C164.855438,253.893402 164.830322,269.028870 164.864380,284.164185 
	C164.886658,294.065552 170.810516,300.788818 179.516174,300.912292 
	C188.256287,301.036224 194.801376,293.940735 194.841278,284.139557 
	C194.896210,270.648346 194.856140,257.156769 194.856750,243.665344 
	C194.856827,241.898697 194.856766,240.132034 194.856766,237.745590 
	C199.653427,237.745590 203.780991,237.745590 207.935364,238.229523 
	C207.958191,279.866730 207.954224,321.019989 207.950241,362.173279 
	C182.255234,362.115967 156.560211,362.061279 130.865204,361.998413 
	C127.218185,361.989471 123.571266,361.940552 119.196793,361.625671 
	C97.735718,356.206726 86.672302,337.845490 86.794662,317.496094 
	C87.292641,234.679993 86.998421,151.859131 87.022224,69.040031 
	C87.022888,66.725807 87.129036,64.380768 87.504135,62.102470 
	C90.108101,46.286278 99.047195,35.672081 113.973183,29.932138 
	C115.133835,29.485796 115.936272,28.107986 116.905197,27.163103 
M260.727264,357.813721 
	C270.411072,365.419312 281.226837,368.374969 293.449127,366.050903 
	C314.494476,362.049194 328.251434,341.145966 323.934296,319.570526 
	C319.768127,298.749573 298.238159,284.708160 277.576050,289.543396 
	C262.563568,293.056580 252.284622,302.270569 248.205978,317.100708 
	C243.923111,332.673431 248.113083,346.337250 260.727264,357.813721 
M249.457626,434.878662 
	C249.950195,435.931885 250.408493,437.002716 250.940399,438.035675 
	C261.360443,458.271301 286.771271,465.411133 306.094025,453.539551 
	C325.505646,441.613434 330.689819,415.922394 317.422699,397.398651 
	C306.228119,381.768616 285.177643,376.618713 268.058655,385.321991 
	C250.198700,394.402008 242.520981,414.226105 249.457626,434.878662 
M374.683411,365.982666 
	C375.179108,366.047577 375.678375,366.092377 376.169952,366.180267 
	C393.076263,369.201538 410.102142,360.642548 417.780579,345.258423 
	C425.559387,329.673096 422.111084,310.815552 409.322784,299.006104 
	C396.724457,287.372070 377.587433,285.179260 362.998016,294.148865 
	C348.520172,303.049835 341.922913,316.418701 344.242004,333.133850 
	C346.627686,350.329010 357.191711,361.089417 374.683411,365.982666 
M388.734009,381.633301 
	C367.586700,378.403961 347.702393,392.766602 344.204895,413.797150 
	C340.688110,434.943756 355.331726,455.384827 376.461945,458.824799 
	C397.950500,462.323151 417.504059,448.054565 421.424957,426.014496 
	C425.047729,405.649963 410.736633,385.780396 388.734009,381.633301 
M319.806061,237.176987 
	C323.866089,228.950882 325.907928,220.524033 324.160797,211.183228 
	C319.926422,188.544739 298.094238,174.410400 275.602448,180.092590 
	C254.123718,185.518829 241.459717,208.858948 248.731720,230.331665 
	C253.981232,245.832367 265.374847,254.796356 281.370789,256.671478 
	C297.723602,258.588409 310.406860,251.510849 319.806061,237.176987 
M393.834106,180.409744 
	C389.729034,179.925781 385.624390,179.035065 381.518799,179.030670 
	C366.450592,179.014496 352.093140,189.159073 346.407349,203.495865 
	C340.537384,218.296951 344.402863,235.327271 356.181458,246.558548 
	C366.980072,256.855377 384.475403,259.955536 397.992157,253.967407 
	C413.293427,247.188675 422.541565,232.458313 421.937256,215.827652 
	C421.362946,200.022736 410.696533,186.326523 393.834106,180.409744 
z"/>
<path fill="#DDDAEC" opacity="1.000000" stroke="none" 
	d="
M116.531250,27.076958 
	C115.936272,28.107986 115.133835,29.485796 113.973183,29.932138 
	C99.047195,35.672081 90.108101,46.286278 87.504135,62.102470 
	C87.129036,64.380768 87.022888,66.725807 87.022224,69.040031 
	C86.998421,151.859131 87.292641,234.679993 86.794662,317.496094 
	C86.672302,337.845490 97.735718,356.206726 118.730515,361.571838 
	C108.010521,361.784210 96.845123,363.033752 86.088295,361.471008 
	C66.620758,358.642792 53.062275,341.455811 53.048351,321.665558 
	C52.997047,248.724960 53.004116,175.784332 52.940697,102.371361 
	C52.924004,90.410019 53.224274,78.914108 52.928249,67.433578 
	C52.412933,47.448776 68.896904,28.416861 89.000450,27.927256 
	C89.416992,27.917112 89.823029,27.475136 90.729691,27.336952 
	C91.225426,27.439285 91.652542,27.510189 91.652542,27.510189 
	C91.652542,27.510189 91.969955,27.162226 91.969955,27.162228 
	C100.032402,27.105087 108.094849,27.047947 116.531250,27.076958 
z"/>
<path fill="#DDDAEC" opacity="1.000000" stroke="none" 
	d="
M207.935013,362.628235 
	C207.954224,321.019989 207.958191,279.866730 207.924271,237.780640 
	C207.907867,227.277893 207.929367,217.707932 207.962708,207.658813 
	C207.982742,202.044373 207.963501,196.908905 208.004150,191.773911 
	C208.142044,174.357742 216.891571,162.601608 232.111694,155.071167 
	C233.229889,154.517914 234.157059,153.578629 235.589874,152.895691 
	C245.976593,152.637558 255.946472,152.302536 265.916351,151.967499 
	C268.568878,151.967499 271.221436,151.967499 273.873962,151.967499 
	C257.968170,156.280945 247.447342,165.950760 242.946045,181.848755 
	C242.367203,183.893112 242.036331,186.082443 242.035248,188.204849 
	C241.990570,275.369659 241.984787,362.534515 242.008774,449.699341 
	C242.012756,464.168274 253.038437,478.440521 268.279236,483.938080 
	C269.684845,484.445068 271.104187,484.913971 272.759216,485.653992 
	C261.239380,485.626465 249.227631,486.759857 237.773422,484.736603 
	C220.144836,481.622803 208.126358,465.732452 208.011307,447.905304 
	C207.828812,419.632233 207.935471,391.357330 207.935013,362.628235 
z"/>
<path fill="#F9F5F8" opacity="1.000000" stroke="none" 
	d="
M91.739792,27.102144 
	C91.969955,27.162226 91.652542,27.510189 91.652542,27.510189 
	C91.652542,27.510189 91.225426,27.439285 91.137947,27.302977 
	C91.050468,27.166668 91.509621,27.042063 91.739792,27.102144 
z"/>
<path fill="#DD646F" opacity="1.000000" stroke="none" 
	d="
M207.950867,208.137985 
	C207.929367,217.707932 207.907867,227.277893 207.897461,237.296722 
	C203.780991,237.745590 199.653427,237.745590 194.856766,237.745590 
	C194.856766,240.132034 194.856827,241.898697 194.856750,243.665344 
	C194.856140,257.156769 194.896210,270.648346 194.841278,284.139557 
	C194.801376,293.940735 188.256287,301.036224 179.516174,300.912292 
	C170.810516,300.788818 164.886658,294.065552 164.864380,284.164185 
	C164.830322,269.028870 164.855438,253.893402 164.855438,237.932938 
	C157.460968,237.932938 150.380493,237.910248 143.300201,237.938416 
	C133.417068,237.977737 124.127419,235.738419 115.797211,230.342941 
	C101.392578,221.013046 93.244263,207.795502 92.978867,190.526413 
	C92.769562,176.906631 91.996918,163.019806 94.193665,149.700043 
	C97.978462,126.751190 118.214912,111.175995 141.498520,110.983871 
	C149.109711,110.921066 156.721863,110.973984 164.735474,110.973984 
	C164.826172,103.835724 164.052643,96.650017 170.522736,92.410500 
	C173.292404,90.595680 176.914978,89.235100 180.176010,89.179039 
	C189.364441,89.021057 193.228653,94.776108 195.356979,110.967941 
	C202.196945,110.967941 209.139572,110.957024 216.082169,110.969894 
	C241.715332,111.017410 260.447479,126.126778 265.933655,151.575897 
	C255.946472,152.302536 245.976593,152.637558 235.520477,152.554916 
	C232.340897,146.034546 227.549530,141.931442 221.134598,141.371475 
	C212.621841,140.628418 203.995346,141.188278 195.040619,141.188278 
	C195.040619,163.347229 195.040619,185.191620 195.067108,207.278412 
	C195.093613,207.520798 195.478165,207.820007 195.478165,207.820007 
	C195.478165,207.820007 195.964462,207.788879 196.423981,207.842453 
	C200.572632,207.976669 204.261749,208.057327 207.950867,208.137985 
M122.822685,186.383926 
	C122.912857,197.143234 126.951721,204.969467 135.530075,206.527771 
	C144.992065,208.246582 154.837723,207.853485 164.513947,208.380203 
	C164.513947,185.182312 164.513947,163.280502 164.513947,140.972046 
	C156.710815,140.972046 149.243103,140.906860 141.776978,140.987457 
	C130.784943,141.106094 123.001274,148.873688 122.854630,159.933441 
	C122.742035,168.425613 122.825516,176.920410 122.822685,186.383926 
z"/>
<path fill="#696169" opacity="1.000000" stroke="none" 
	d="
M260.454956,357.582886 
	C248.113083,346.337250 243.923111,332.673431 248.205978,317.100708 
	C252.284622,302.270569 262.563568,293.056580 277.576050,289.543396 
	C298.238159,284.708160 319.768127,298.749573 323.934296,319.570526 
	C328.251434,341.145966 314.494476,362.049194 293.449127,366.050903 
	C281.226837,368.374969 270.411072,365.419312 260.454956,357.582886 
M286.321106,338.007568 
	C281.051666,337.915131 277.325958,340.379425 275.548706,345.233887 
	C273.918091,349.687805 274.985138,353.836823 278.626678,356.970642 
	C282.062866,359.927795 286.097931,360.606232 290.233978,358.621185 
	C294.522430,356.562927 296.687073,352.964417 296.467346,348.177002 
	C296.230682,343.021027 293.318878,339.973206 286.321106,338.007568 
M296.315826,330.703125 
	C299.545776,337.556061 305.150879,340.226898 311.057617,337.727509 
	C316.226471,335.540405 318.870300,329.360016 316.929596,324.000793 
	C315.129547,319.029938 309.752838,316.049042 304.520264,317.120941 
	C298.950256,318.261993 295.872864,322.953827 296.315826,330.703125 
M273.372955,321.400482 
	C268.957794,316.841400 264.732758,315.747955 260.073303,317.958649 
	C255.539734,320.109558 253.128311,324.874023 254.028671,329.901489 
	C254.816772,334.302124 258.570404,338.481110 263.212799,338.224762 
	C266.627289,338.036163 270.635742,336.397339 273.093506,334.055267 
	C276.472015,330.835785 276.027039,326.219818 273.372955,321.400482 
M287.133026,295.990204 
	C282.130737,295.483734 278.344940,297.468109 276.068695,301.877777 
	C273.976532,305.930817 274.537354,309.947235 277.350647,313.510712 
	C280.089752,316.980225 283.825897,317.920349 288.041199,317.134369 
	C292.588501,316.286438 295.875397,312.555023 296.346283,307.842773 
	C296.912903,302.172607 294.369720,298.612244 287.133026,295.990204 
z"/>
<path fill="#696169" opacity="1.000000" stroke="none" 
	d="
M249.300140,434.521240 
	C242.520981,414.226105 250.198700,394.402008 268.058655,385.321991 
	C285.177643,376.618713 306.228119,381.768616 317.422699,397.398651 
	C330.689819,415.922394 325.505646,441.613434 306.094025,453.539551 
	C286.771271,465.411133 261.360443,458.271301 250.940399,438.035675 
	C250.408493,437.002716 249.950195,435.931885 249.300140,434.521240 
M283.935913,409.883392 
	C291.067291,409.927124 295.249634,406.905548 296.281006,400.964539 
	C297.178192,395.796448 294.379456,390.858978 289.508545,389.016693 
	C283.948425,386.913727 277.778168,389.679047 275.606598,395.247131 
	C273.276794,401.220703 276.138397,406.710693 283.935913,409.883392 
M312.366547,410.962341 
	C306.266663,408.430359 301.327240,409.390564 298.119476,413.732025 
	C295.209076,417.671082 295.218536,422.886444 298.143097,426.713837 
	C302.035492,431.807983 309.259003,432.517944 314.020172,428.274353 
	C319.185455,423.670593 318.779480,416.945068 312.366547,410.962341 
M275.282288,421.298492 
	C274.983704,414.030212 270.973206,409.453613 264.787201,409.322021 
	C259.538208,409.210358 254.699356,413.302002 253.981476,418.459106 
	C253.177032,424.237946 256.792023,429.615479 262.300385,430.834076 
	C268.167389,432.132019 273.187653,428.739929 275.282288,421.298492 
M290.182587,451.085419 
	C295.083344,448.614594 297.163239,444.625244 296.219727,439.252655 
	C295.426178,434.734039 292.636505,431.825226 288.139252,430.870911 
	C283.519653,429.890625 279.540558,431.141876 276.829620,435.185486 
	C274.170227,439.152222 274.046967,443.362885 276.789276,447.286285 
	C279.896423,451.731628 284.239899,453.089813 290.182587,451.085419 
z"/>
<path fill="#696169" opacity="1.000000" stroke="none" 
	d="
M374.271179,365.913574 
	C357.191711,361.089417 346.627686,350.329010 344.242004,333.133850 
	C341.922913,316.418701 348.520172,303.049835 362.998016,294.148865 
	C377.587433,285.179260 396.724457,287.372070 409.322784,299.006104 
	C422.111084,310.815552 425.559387,329.673096 417.780579,345.258423 
	C410.102142,360.642548 393.076263,369.201538 376.169952,366.180267 
	C375.678375,366.092377 375.179108,366.047577 374.271179,365.913574 
M382.597717,359.728363 
	C384.057556,359.435516 385.596832,359.346069 386.962738,358.812653 
	C391.546753,357.022614 394.379517,351.842072 393.512695,347.135223 
	C392.538239,341.843689 388.384308,338.173126 383.181000,338.005707 
	C378.061188,337.840973 373.346558,341.452087 372.206390,346.411621 
	C370.787537,352.583313 374.479370,357.661682 382.597717,359.728363 
M414.282745,330.581787 
	C415.440857,323.649994 412.032410,318.181091 405.863617,317.073151 
	C400.059418,316.030731 394.395844,319.902466 393.209991,325.723389 
	C392.164642,330.854370 395.321167,336.265808 400.357330,337.976654 
	C406.070068,339.917328 410.789825,337.629608 414.282745,330.581787 
M372.709503,310.415527 
	C376.274780,317.096680 382.603912,319.357574 388.301178,315.985229 
	C393.598602,312.849518 395.225372,306.059967 391.931671,300.832886 
	C389.306091,296.666168 383.946991,294.805786 379.273834,296.438812 
	C373.976654,298.289917 371.560425,302.938934 372.709503,310.415527 
M355.816956,336.820557 
	C360.127411,339.307190 364.384064,339.305695 368.373169,336.237244 
	C371.651276,333.715790 373.078491,330.253204 372.409027,326.140198 
	C371.598999,321.163605 368.533752,318.128204 363.667816,317.109985 
	C359.010193,316.135376 354.207306,318.671539 352.047333,322.952026 
	C349.770691,327.463745 350.793060,331.804016 355.816956,336.820557 
z"/>
<path fill="#696169" opacity="1.000000" stroke="none" 
	d="
M389.156281,381.716064 
	C410.736633,385.780396 425.047729,405.649963 421.424957,426.014496 
	C417.504059,448.054565 397.950500,462.323151 376.461945,458.824799 
	C355.331726,455.384827 340.688110,434.943756 344.204895,413.797150 
	C347.702393,392.766602 367.586700,378.403961 389.156281,381.716064 
M414.816681,420.447083 
	C414.561127,419.148834 414.458435,417.796600 414.022705,416.561951 
	C412.407867,411.986755 407.813446,408.978699 403.200287,409.349731 
	C398.403870,409.735504 394.396729,413.171692 393.272400,417.863159 
	C392.196777,422.351410 394.494629,427.414246 398.697754,429.718750 
	C405.541931,433.471375 414.064545,428.923523 414.816681,420.447083 
M372.042664,397.866730 
	C371.725922,403.308807 373.993378,407.192505 379.088501,409.237793 
	C383.433655,410.981995 387.357147,409.890137 390.513519,406.689026 
	C393.847900,403.307343 394.662567,399.131836 392.694366,394.742828 
	C390.825989,390.576385 387.344025,388.417084 382.832642,388.269470 
	C377.959961,388.110107 374.438110,391.145813 372.042664,397.866730 
M373.907257,447.387573 
	C378.412659,452.177399 382.853790,453.347748 387.599060,450.995636 
	C391.923737,448.852020 394.431641,443.978607 393.474274,439.426117 
	C392.582672,435.186340 390.146667,432.195007 385.929718,430.979340 
	C381.556061,429.718536 377.630524,430.723938 374.665466,434.234589 
	C371.440125,438.053497 371.097412,442.311768 373.907257,447.387573 
M372.409760,421.964691 
	C372.593445,413.781097 367.145935,408.266846 360.119171,409.523529 
	C354.634552,410.504395 350.928894,414.870209 350.966156,420.307007 
	C351.001312,425.435913 354.819824,430.020111 359.796631,430.908142 
	C365.356171,431.900146 369.887726,428.909790 372.409760,421.964691 
z"/>
<path fill="#97D7A5" opacity="1.000000" stroke="none" 
	d="
M319.606354,237.487610 
	C310.406860,251.510849 297.723602,258.588409 281.370789,256.671478 
	C265.374847,254.796356 253.981232,245.832367 248.731720,230.331665 
	C241.459717,208.858948 254.123718,185.518829 275.602448,180.092590 
	C298.094238,174.410400 319.926422,188.544739 324.160797,211.183228 
	C325.907928,220.524033 323.866089,228.950882 319.606354,237.487610 
M313.015076,226.671967 
	C318.082397,221.936218 319.009125,217.904663 316.241821,212.634460 
	C314.067719,208.493958 309.008728,206.208618 304.463837,207.313904 
	C297.907166,208.908447 294.473206,215.120987 296.641724,221.465195 
	C298.866272,227.973328 305.089508,230.203995 313.015076,226.671967 
M296.438080,195.869858 
	C296.303223,195.218323 296.212128,194.554062 296.026611,193.917267 
	C294.510040,188.710052 290.144226,185.650162 284.791046,186.021973 
	C280.002808,186.354523 275.614197,190.483261 275.020996,195.213516 
	C274.326660,200.750595 276.968048,205.120071 282.125916,206.966675 
	C289.218872,209.506073 295.019653,205.356842 296.438080,195.869858 
M277.420715,232.045807 
	C274.169434,236.201340 273.829559,240.694992 276.764404,244.969666 
	C279.248260,248.587494 282.947540,250.656219 287.533081,249.626266 
	C292.293884,248.556961 295.519196,245.740921 296.297363,240.629181 
	C297.069702,235.555588 294.959595,231.853119 290.692139,229.437286 
	C286.015259,226.789703 281.740875,227.945023 277.420715,232.045807 
M255.885895,211.609375 
	C253.071091,215.979919 252.901978,220.442719 256.174927,224.519913 
	C258.784637,227.770889 262.322998,229.650131 266.699951,228.545547 
	C271.265533,227.393387 274.360474,224.585022 275.050171,219.776337 
	C275.740997,214.959641 274.428680,210.893036 269.845367,208.422668 
	C265.165741,205.900345 261.114532,206.689240 255.885895,211.609375 
z"/>
<path fill="#97D7A5" opacity="1.000000" stroke="none" 
	d="
M394.209961,180.558350 
	C410.696533,186.326523 421.362946,200.022736 421.937256,215.827652 
	C422.541565,232.458313 413.293427,247.188675 397.992157,253.967407 
	C384.475403,259.955536 366.980072,256.855377 356.181458,246.558548 
	C344.402863,235.327271 340.537384,218.296951 346.407349,203.495865 
	C352.093140,189.159073 366.450592,179.014496 381.518799,179.030670 
	C385.624390,179.035065 389.729034,179.925781 394.209961,180.558350 
M380.285187,228.419418 
	C379.236084,228.904572 378.126038,229.290573 377.148102,229.891510 
	C372.071625,233.010956 370.484039,239.518204 373.503448,244.619308 
	C376.539459,249.748550 383.534790,251.354782 388.686615,248.105621 
	C392.628052,245.619827 394.537628,240.481018 393.168884,236.043304 
	C391.439026,230.434738 387.766357,228.058426 380.285187,228.419418 
M353.987030,225.449738 
	C359.558289,229.553635 363.109680,229.985458 367.639771,226.904541 
	C371.583679,224.222275 373.219330,220.442703 372.329773,215.719925 
	C371.418823,210.883423 368.205658,208.096115 363.606140,207.218735 
	C359.130371,206.364944 355.337128,208.136276 352.790466,211.902222 
	C349.815094,216.302124 350.454956,220.703506 353.987030,225.449738 
M378.738373,186.894745 
	C372.339264,190.571503 370.374390,195.561310 373.064484,201.303635 
	C375.516327,206.537323 381.078735,208.947449 386.310638,207.043015 
	C391.921082,205.000793 394.841888,199.402176 393.152069,193.929321 
	C391.235870,187.723236 386.471344,185.185898 378.738373,186.894745 
M412.868774,211.813049 
	C407.983490,206.506821 403.189911,205.600800 397.915497,208.986816 
	C393.576324,211.772430 391.909668,216.880753 393.796265,221.612488 
	C396.115845,227.430252 401.940155,230.148224 407.533081,228.022934 
	C413.917542,225.596863 416.025604,219.842087 412.868774,211.813049 
z"/>
<path fill="#F9F6F9" opacity="1.000000" stroke="none" 
	d="
M195.040619,207.036026 
	C195.040619,185.191620 195.040619,163.347229 195.040619,141.188278 
	C203.995346,141.188278 212.621841,140.628418 221.134598,141.371475 
	C227.549530,141.931442 232.340897,146.034546 235.103638,152.478027 
	C234.157059,153.578629 233.229889,154.517914 232.111694,155.071167 
	C216.891571,162.601608 208.142044,174.357742 208.004150,191.773911 
	C207.963501,196.908905 207.982742,202.044373 207.962708,207.658813 
	C204.261749,208.057327 200.572632,207.976669 196.311829,207.671204 
	C195.548981,207.237991 195.315811,207.101212 195.040619,207.036026 
z"/>
<path fill="#F9F4F8" opacity="1.000000" stroke="none" 
	d="
M122.822235,185.898987 
	C122.825516,176.920410 122.742035,168.425613 122.854630,159.933441 
	C123.001274,148.873688 130.784943,141.106094 141.776978,140.987457 
	C149.243103,140.906860 156.710815,140.972046 164.513947,140.972046 
	C164.513947,163.280502 164.513947,185.182312 164.513947,208.380203 
	C154.837723,207.853485 144.992065,208.246582 135.530075,206.527771 
	C126.951721,204.969467 122.912857,197.143234 122.822235,185.898987 
z"/>
<path fill="#DDDAEC" opacity="1.000000" stroke="none" 
	d="
M195.067108,207.278412 
	C195.315811,207.101212 195.548981,207.237991 195.852295,207.617615 
	C195.964462,207.788879 195.478165,207.820007 195.478165,207.820007 
	C195.478165,207.820007 195.093613,207.520798 195.067108,207.278412 
z"/>
<path fill="#F5F2F5" opacity="1.000000" stroke="none" 
	d="
M286.721619,338.030396 
	C293.318878,339.973206 296.230682,343.021027 296.467346,348.177002 
	C296.687073,352.964417 294.522430,356.562927 290.233978,358.621185 
	C286.097931,360.606232 282.062866,359.927795 278.626678,356.970642 
	C274.985138,353.836823 273.918091,349.687805 275.548706,345.233887 
	C277.325958,340.379425 281.051666,337.915131 286.721619,338.030396 
z"/>
<path fill="#F5F2F5" opacity="1.000000" stroke="none" 
	d="
M296.218445,330.314880 
	C295.872864,322.953827 298.950256,318.261993 304.520264,317.120941 
	C309.752838,316.049042 315.129547,319.029938 316.929596,324.000793 
	C318.870300,329.360016 316.226471,335.540405 311.057617,337.727509 
	C305.150879,340.226898 299.545776,337.556061 296.218445,330.314880 
z"/>
<path fill="#F6F3F6" opacity="1.000000" stroke="none" 
	d="
M273.604248,321.722473 
	C276.027039,326.219818 276.472015,330.835785 273.093506,334.055267 
	C270.635742,336.397339 266.627289,338.036163 263.212799,338.224762 
	C258.570404,338.481110 254.816772,334.302124 254.028671,329.901489 
	C253.128311,324.874023 255.539734,320.109558 260.073303,317.958649 
	C264.732758,315.747955 268.957794,316.841400 273.604248,321.722473 
z"/>
<path fill="#F7F4F7" opacity="1.000000" stroke="none" 
	d="
M287.537537,296.033661 
	C294.369720,298.612244 296.912903,302.172607 296.346283,307.842773 
	C295.875397,312.555023 292.588501,316.286438 288.041199,317.134369 
	C283.825897,317.920349 280.089752,316.980225 277.350647,313.510712 
	C274.537354,309.947235 273.976532,305.930817 276.068695,301.877777 
	C278.344940,297.468109 282.130737,295.483734 287.537537,296.033661 
z"/>
<path fill="#F6F3F6" opacity="1.000000" stroke="none" 
	d="
M283.546387,409.807892 
	C276.138397,406.710693 273.276794,401.220703 275.606598,395.247131 
	C277.778168,389.679047 283.948425,386.913727 289.508545,389.016693 
	C294.379456,390.858978 297.178192,395.796448 296.281006,400.964539 
	C295.249634,406.905548 291.067291,409.927124 283.546387,409.807892 
z"/>
<path fill="#F5F2F5" opacity="1.000000" stroke="none" 
	d="
M312.682983,411.163635 
	C318.779480,416.945068 319.185455,423.670593 314.020172,428.274353 
	C309.259003,432.517944 302.035492,431.807983 298.143097,426.713837 
	C295.218536,422.886444 295.209076,417.671082 298.119476,413.732025 
	C301.327240,409.390564 306.266663,408.430359 312.682983,411.163635 
z"/>
<path fill="#F6F3F6" opacity="1.000000" stroke="none" 
	d="
M275.232086,421.714386 
	C273.187653,428.739929 268.167389,432.132019 262.300385,430.834076 
	C256.792023,429.615479 253.177032,424.237946 253.981476,418.459106 
	C254.699356,413.302002 259.538208,409.210358 264.787201,409.322021 
	C270.973206,409.453613 274.983704,414.030212 275.232086,421.714386 
z"/>
<path fill="#F6F3F6" opacity="1.000000" stroke="none" 
	d="
M289.819763,451.242004 
	C284.239899,453.089813 279.896423,451.731628 276.789276,447.286285 
	C274.046967,443.362885 274.170227,439.152222 276.829620,435.185486 
	C279.540558,431.141876 283.519653,429.890625 288.139252,430.870911 
	C292.636505,431.825226 295.426178,434.734039 296.219727,439.252655 
	C297.163239,444.625244 295.083344,448.614594 289.819763,451.242004 
z"/>
<path fill="#F5F2F5" opacity="1.000000" stroke="none" 
	d="
M382.215790,359.691528 
	C374.479370,357.661682 370.787537,352.583313 372.206390,346.411621 
	C373.346558,341.452087 378.061188,337.840973 383.181000,338.005707 
	C388.384308,338.173126 392.538239,341.843689 393.512695,347.135223 
	C394.379517,351.842072 391.546753,357.022614 386.962738,358.812653 
	C385.596832,359.346069 384.057556,359.435516 382.215790,359.691528 
z"/>
<path fill="#F5F2F5" opacity="1.000000" stroke="none" 
	d="
M414.178650,330.954773 
	C410.789825,337.629608 406.070068,339.917328 400.357330,337.976654 
	C395.321167,336.265808 392.164642,330.854370 393.209991,325.723389 
	C394.395844,319.902466 400.059418,316.030731 405.863617,317.073151 
	C412.032410,318.181091 415.440857,323.649994 414.178650,330.954773 
z"/>
<path fill="#F5F2F5" opacity="1.000000" stroke="none" 
	d="
M372.550232,310.048798 
	C371.560425,302.938934 373.976654,298.289917 379.273834,296.438812 
	C383.946991,294.805786 389.306091,296.666168 391.931671,300.832886 
	C395.225372,306.059967 393.598602,312.849518 388.301178,315.985229 
	C382.603912,319.357574 376.274780,317.096680 372.550232,310.048798 
z"/>
<path fill="#F6F3F6" opacity="1.000000" stroke="none" 
	d="
M355.512939,336.597168 
	C350.793060,331.804016 349.770691,327.463745 352.047333,322.952026 
	C354.207306,318.671539 359.010193,316.135376 363.667816,317.109985 
	C368.533752,318.128204 371.598999,321.163605 372.409027,326.140198 
	C373.078491,330.253204 371.651276,333.715790 368.373169,336.237244 
	C364.384064,339.305695 360.127411,339.307190 355.512939,336.597168 
z"/>
<path fill="#F5F2F5" opacity="1.000000" stroke="none" 
	d="
M414.787598,420.833740 
	C414.064545,428.923523 405.541931,433.471375 398.697754,429.718750 
	C394.494629,427.414246 392.196777,422.351410 393.272400,417.863159 
	C394.396729,413.171692 398.403870,409.735504 403.200287,409.349731 
	C407.813446,408.978699 412.407867,411.986755 414.022705,416.561951 
	C414.458435,417.796600 414.561127,419.148834 414.787598,420.833740 
z"/>
<path fill="#F5F2F5" opacity="1.000000" stroke="none" 
	d="
M372.090271,397.466309 
	C374.438110,391.145813 377.959961,388.110107 382.832642,388.269470 
	C387.344025,388.417084 390.825989,390.576385 392.694366,394.742828 
	C394.662567,399.131836 393.847900,403.307343 390.513519,406.689026 
	C387.357147,409.890137 383.433655,410.981995 379.088501,409.237793 
	C373.993378,407.192505 371.725922,403.308807 372.090271,397.466309 
z"/>
<path fill="#F5F2F5" opacity="1.000000" stroke="none" 
	d="
M373.685364,447.068542 
	C371.097412,442.311768 371.440125,438.053497 374.665466,434.234589 
	C377.630524,430.723938 381.556061,429.718536 385.929718,430.979340 
	C390.146667,432.195007 392.582672,435.186340 393.474274,439.426117 
	C394.431641,443.978607 391.923737,448.852020 387.599060,450.995636 
	C382.853790,453.347748 378.412659,452.177399 373.685364,447.068542 
z"/>
<path fill="#F5F2F5" opacity="1.000000" stroke="none" 
	d="
M372.319336,422.334412 
	C369.887726,428.909790 365.356171,431.900146 359.796631,430.908142 
	C354.819824,430.020111 351.001312,425.435913 350.966156,420.307007 
	C350.928894,414.870209 354.634552,410.504395 360.119171,409.523529 
	C367.145935,408.266846 372.593445,413.781097 372.319336,422.334412 
z"/>
<path fill="#F6F5F7" opacity="1.000000" stroke="none" 
	d="
M312.702118,226.890839 
	C305.089508,230.203995 298.866272,227.973328 296.641724,221.465195 
	C294.473206,215.120987 297.907166,208.908447 304.463837,207.313904 
	C309.008728,206.208618 314.067719,208.493958 316.241821,212.634460 
	C319.009125,217.904663 318.082397,221.936218 312.702118,226.890839 
z"/>
<path fill="#F6F5F7" opacity="1.000000" stroke="none" 
	d="
M296.524719,196.237610 
	C295.019653,205.356842 289.218872,209.506073 282.125916,206.966675 
	C276.968048,205.120071 274.326660,200.750595 275.020996,195.213516 
	C275.614197,190.483261 280.002808,186.354523 284.791046,186.021973 
	C290.144226,185.650162 294.510040,188.710052 296.026611,193.917267 
	C296.212128,194.554062 296.303223,195.218323 296.524719,196.237610 
z"/>
<path fill="#F7F5F7" opacity="1.000000" stroke="none" 
	d="
M277.686768,231.766312 
	C281.740875,227.945023 286.015259,226.789703 290.692139,229.437286 
	C294.959595,231.853119 297.069702,235.555588 296.297363,240.629181 
	C295.519196,245.740921 292.293884,248.556961 287.533081,249.626266 
	C282.947540,250.656219 279.248260,248.587494 276.764404,244.969666 
	C273.829559,240.694992 274.169434,236.201340 277.686768,231.766312 
z"/>
<path fill="#F7F5F7" opacity="1.000000" stroke="none" 
	d="
M256.134216,211.312775 
	C261.114532,206.689240 265.165741,205.900345 269.845367,208.422668 
	C274.428680,210.893036 275.740997,214.959641 275.050171,219.776337 
	C274.360474,224.585022 271.265533,227.393387 266.699951,228.545547 
	C262.322998,229.650131 258.784637,227.770889 256.174927,224.519913 
	C252.901978,220.442719 253.071091,215.979919 256.134216,211.312775 
z"/>
<path fill="#F6F5F7" opacity="1.000000" stroke="none" 
	d="
M380.662842,228.307663 
	C387.766357,228.058426 391.439026,230.434738 393.168884,236.043304 
	C394.537628,240.481018 392.628052,245.619827 388.686615,248.105621 
	C383.534790,251.354782 376.539459,249.748550 373.503448,244.619308 
	C370.484039,239.518204 372.071625,233.010956 377.148102,229.891510 
	C378.126038,229.290573 379.236084,228.904572 380.662842,228.307663 
z"/>
<path fill="#F6F5F7" opacity="1.000000" stroke="none" 
	d="
M353.723572,225.170380 
	C350.454956,220.703506 349.815094,216.302124 352.790466,211.902222 
	C355.337128,208.136276 359.130371,206.364944 363.606140,207.218735 
	C368.205658,208.096115 371.418823,210.883423 372.329773,215.719925 
	C373.219330,220.442703 371.583679,224.222275 367.639771,226.904541 
	C363.109680,229.985458 359.558289,229.553635 353.723572,225.170380 
z"/>
<path fill="#F7F5F7" opacity="1.000000" stroke="none" 
	d="
M379.111084,186.772552 
	C386.471344,185.185898 391.235870,187.723236 393.152069,193.929321 
	C394.841888,199.402176 391.921082,205.000793 386.310638,207.043015 
	C381.078735,208.947449 375.516327,206.537323 373.064484,201.303635 
	C370.374390,195.561310 372.339264,190.571503 379.111084,186.772552 
z"/>
<path fill="#F7F5F7" opacity="1.000000" stroke="none" 
	d="
M413.045624,212.152222 
	C416.025604,219.842087 413.917542,225.596863 407.533081,228.022934 
	C401.940155,230.148224 396.115845,227.430252 393.796265,221.612488 
	C391.909668,216.880753 393.576324,211.772430 397.915497,208.986816 
	C403.189911,205.600800 407.983490,206.506821 413.045624,212.152222 
z"/>
</svg>